# Blender 4.3.2
# www.blender.org
mtllib MineMesh.mtl
o Cylinder.002
v -0.000000 -0.148197 -0.226872
v -0.000000 -0.033372 -0.226872
v 0.098436 -0.148197 -0.204404
v 0.098436 -0.033372 -0.204404
v 0.177376 -0.148197 -0.141452
v 0.177376 -0.033372 -0.141452
v 0.221185 -0.148197 -0.050483
v 0.221185 -0.033372 -0.050483
v 0.221185 -0.148197 0.050485
v 0.221185 -0.033372 0.050485
v 0.177376 -0.148197 0.141454
v 0.177376 -0.033372 0.141454
v 0.098436 -0.148197 0.204406
v 0.098436 -0.033372 0.204406
v -0.000000 -0.148197 0.226874
v -0.000000 -0.033372 0.226874
v -0.098436 -0.148197 0.204406
v -0.098436 -0.033372 0.204406
v -0.177376 -0.148197 0.141454
v -0.177376 -0.033372 0.141454
v -0.221185 -0.148197 0.050485
v -0.221185 -0.033372 0.050485
v -0.221185 -0.148197 -0.050483
v -0.221185 -0.033372 -0.050483
v -0.177376 -0.148197 -0.141452
v -0.177376 -0.033372 -0.141452
v -0.098436 -0.148197 -0.204404
v -0.098436 -0.033372 -0.204404
v 0.054201 -0.033372 -0.112549
v -0.000000 -0.033372 -0.124920
v 0.097667 -0.033372 -0.077886
v 0.121789 -0.033372 -0.027796
v 0.121789 -0.033372 0.027799
v 0.097667 -0.033372 0.077888
v 0.054201 -0.033372 0.112551
v -0.000000 -0.033372 0.124922
v -0.054201 -0.033372 0.112551
v -0.097667 -0.033372 0.077888
v -0.121789 -0.033372 0.027799
v -0.121789 -0.033372 -0.027796
v -0.097667 -0.033372 -0.077886
v -0.054201 -0.033372 -0.112549
v 0.098436 -0.011706 -0.204404
v -0.000000 -0.011706 -0.226872
v 0.221185 -0.011706 -0.050483
v 0.177376 -0.011706 -0.141452
v 0.177376 -0.011706 0.141454
v 0.221185 -0.011706 0.050485
v -0.000000 -0.011706 0.226874
v 0.098436 -0.011706 0.204406
v -0.177376 -0.011706 0.141454
v -0.098436 -0.011706 0.204406
v -0.221185 -0.011706 -0.050483
v -0.221185 -0.011706 0.050485
v -0.098436 -0.011706 -0.204404
v -0.177376 -0.011706 -0.141452
v 0.054201 -0.011706 -0.112549
v -0.000000 -0.011706 -0.124920
v 0.097667 -0.011706 -0.077886
v 0.121789 -0.011706 -0.027796
v 0.121789 -0.011706 0.027799
v 0.097667 -0.011706 0.077888
v 0.054201 -0.011706 0.112551
v -0.000000 -0.011706 0.124922
v -0.054201 -0.011706 0.112551
v -0.097667 -0.011706 0.077888
v -0.121789 -0.011706 0.027799
v -0.121789 -0.011706 -0.027796
v -0.097667 -0.011706 -0.077886
v -0.054201 -0.011706 -0.112549
v 0.004349 -0.148197 -0.245927
v 0.102786 -0.148197 -0.223460
v 0.102786 -0.033372 -0.223460
v 0.004349 -0.033372 -0.245927
v 0.194987 -0.033372 -0.149932
v 0.194987 -0.148197 -0.149932
v 0.238795 -0.148197 -0.058963
v 0.238795 -0.033372 -0.058963
v 0.238795 -0.033372 0.058966
v 0.238795 -0.148197 0.058966
v 0.194987 -0.148197 0.149934
v 0.194987 -0.033372 0.149934
v 0.102786 -0.033372 0.223462
v 0.102786 -0.148197 0.223462
v 0.004349 -0.148197 0.245930
v 0.004349 -0.033372 0.245930
v -0.110623 -0.033372 0.219688
v -0.110623 -0.148197 0.219688
v -0.189563 -0.148197 0.156736
v -0.189563 -0.033372 0.156736
v -0.240730 -0.033372 0.050485
v -0.240730 -0.148197 0.050485
v -0.240730 -0.148197 -0.050483
v -0.240730 -0.033372 -0.050483
v -0.189563 -0.033372 -0.156733
v -0.189563 -0.148197 -0.156733
v -0.110623 -0.148197 -0.219686
v -0.110623 -0.033372 -0.219686
v -0.189563 -0.011706 0.156736
v -0.110623 -0.011706 0.219688
v 0.102786 -0.011706 -0.223460
v -0.110623 -0.011706 -0.219686
v -0.189563 -0.011706 -0.156733
v 0.004349 -0.011706 -0.245927
v 0.238795 -0.011706 -0.058963
v 0.194987 -0.011706 -0.149932
v 0.194987 -0.011706 0.149934
v 0.238795 -0.011706 0.058966
v 0.004349 -0.011706 0.245930
v 0.102786 -0.011706 0.223462
v -0.240730 -0.011706 -0.050483
v -0.240730 -0.011706 0.050485
vn 0.9556 -0.0000 -0.2946
vn 0.9439 -0.0000 -0.3303
vn 0.9749 -0.0000 -0.2226
vn 0.6235 -0.0000 -0.7818
vn 0.3303 -0.0000 0.9439
vn 0.3654 -0.0000 0.9308
vn 0.4339 -0.0000 0.9010
vn 1.0000 -0.0000 -0.0000
vn -0.9749 -0.0000 -0.2225
vn -0.9888 -0.0000 -0.1492
vn 0.6235 -0.0000 0.7818
vn -0.7071 -0.0000 -0.7071
vn -0.7331 -0.0000 -0.6801
vn -0.7818 -0.0000 -0.6235
vn -0.2225 -0.0000 0.9749
vn -0.4999 -0.0000 0.8661
vn -0.4338 -0.0000 0.9010
vn -0.9010 -0.0000 0.4339
vn -0.9937 -0.0000 0.1120
vn -0.9888 -0.0000 0.1492
vn -0.9749 -0.0000 0.2225
vn -0.9010 -0.0000 -0.4339
vn 0.9010 -0.0000 -0.4339
vn -0.5320 -0.0000 0.8467
vn -0.2225 -0.0000 -0.9749
vn -0.0000 -1.0000 -0.0000
vn -0.7331 -0.0000 0.6801
vn -0.7071 -0.0000 0.7071
vn -0.7818 -0.0000 0.6235
vn -0.0000 1.0000 -0.0000
vn 0.8262 -0.0000 -0.5634
vn 0.8467 -0.0000 -0.5320
vn -0.4999 -0.0000 -0.8661
vn -0.5320 -0.0000 -0.8467
vn -0.4338 -0.0000 -0.9010
vn -0.6235 -0.0000 0.7818
vn 0.9010 -0.0000 0.4339
vn 0.9556 -0.0000 0.2946
vn 0.9439 -0.0000 0.3303
vn 0.2225 -0.0000 -0.9749
vn 0.0746 -0.0000 -0.9972
vn 0.1120 -0.0000 -0.9937
vn 0.3655 -0.0000 -0.9308
vn 0.3303 -0.0000 -0.9439
vn -0.6235 -0.0000 -0.7818
vn 0.4339 -0.0000 -0.9010
vn 0.0746 -0.0000 0.9972
vn 0.2225 -0.0000 0.9749
vn 0.1120 -0.0000 0.9937
vn 0.7818 -0.0000 -0.6235
vn -1.0000 -0.0000 -0.0000
vn 0.8262 -0.0000 0.5634
vn 0.8467 -0.0000 0.5320
vn -0.9937 -0.0000 -0.1120
vn 0.9749 -0.0000 0.2226
vn -0.0000 -0.0000 1.0000
vn 0.7818 -0.0000 0.6235
vn -0.0000 -0.0000 -1.0000
vn 0.4338 -0.0000 0.9010
vt 0.944969 0.868873
vt 0.985800 0.811710
vt 0.985800 0.868873
vt 0.977634 0.868873
vt 0.977634 0.811710
vt 0.969468 0.868873
vt 0.969468 0.811710
vt 0.961301 0.868873
vt 0.961301 0.811710
vt 0.879640 0.811710
vt 0.879640 0.868873
vt 0.953135 0.811710
vt 0.953135 0.868873
vt 0.944969 0.811710
vt 0.920471 0.868873
vt 0.936803 0.811710
vt 0.936803 0.868873
vt 0.928637 0.868873
vt 0.928637 0.811710
vt 0.920471 0.811710
vt 0.912304 0.868873
vt 0.912304 0.811710
vt 0.904138 0.811710
vt 0.904138 0.868873
vt 0.895972 0.868873
vt 0.895972 0.811710
vt 0.887806 0.811710
vt 0.887806 0.868873
vt 0.965385 0.801547
vt 0.973376 0.799723
vt 0.979785 0.794612
vt 0.983342 0.787227
vt 0.983342 0.779029
vt 0.979785 0.771644
vt 0.973376 0.766533
vt 0.965385 0.764709
vt 0.957393 0.766533
vt 0.950984 0.771644
vt 0.947428 0.779029
vt 0.947428 0.787227
vt 0.950984 0.794612
vt 0.957393 0.799723
vt 0.778784 0.976295
vt 0.786951 0.976295
vt 0.808934 0.990925
vt 0.797870 0.993450
vt 0.786806 0.990925
vt 0.777933 0.983849
vt 0.773009 0.973624
vt 0.773009 0.962276
vt 0.777933 0.952051
vt 0.786806 0.944976
vt 0.797870 0.942450
vt 0.808934 0.944976
vt 0.817806 0.952051
vt 0.822730 0.962276
vt 0.822730 0.973624
vt 0.817806 0.983849
vt 0.993966 0.868873
vt 0.977290 0.807849
vt 0.965384 0.810566
vt 0.762452 0.976295
vt 0.770618 0.976295
vt 0.860446 0.976295
vt 0.868613 0.976295
vt 0.844114 0.976295
vt 0.852280 0.976295
vt 0.986837 0.766020
vt 0.992135 0.777022
vt 0.827782 0.976295
vt 0.835948 0.976295
vt 0.811449 0.976295
vt 0.819615 0.976295
vt 0.795117 0.976295
vt 0.803283 0.976295
vt 0.993966 0.811710
vt 0.938634 0.789234
vt 0.938634 0.777022
vt 0.965384 0.755690
vt 0.977290 0.758407
vt 0.992135 0.789234
vt 0.986837 0.800236
vt 0.953480 0.807849
vt 0.943932 0.800236
vt 0.943932 0.766020
vt 0.953480 0.758407
s 1
usemtl M_Rocket
f 14/1/1 50/1/2 110/1/3 83/1/3
s 2
f 3/2/4 4/3/4 6/4/4 5/5/4
s 3
f 45/6/5 8/6/6 78/6/7 105/6/7
s 4
f 7/7/8 8/6/8 10/8/8 9/9/8
s 5
f 1/10/9 2/11/10 74/11/9 71/10/9
s 6
f 11/12/11 12/13/11 14/1/11 13/14/11
s 7
f 51/15/12 20/15/13 90/15/14 99/15/14
s 8
f 15/16/15 16/17/15 18/18/15 17/19/15
s 9
f 12/13/16 11/12/17 81/12/17 82/13/17
s 10
f 19/20/18 20/15/18 22/21/18 21/22/18
s 11
f 49/17/19 16/17/20 86/17/21 109/17/21
s 12
f 23/23/22 24/24/22 26/25/22 25/26/22
s 1
f 14/1/1 35/1/23 63/1/23 50/1/2
s 9
f 47/13/24 12/13/16 82/13/17 107/13/17
s 13
f 27/27/25 28/28/25 2/11/25 1/10/25
s 14
f 1/29/26 3/30/26 5/31/26 7/32/26 9/33/26 11/34/26 13/35/26 15/36/26 17/37/26 19/38/26 21/39/26 23/40/26 25/41/26 27/42/26
s 15
f 26/25/27 56/25/28 103/25/29 95/25/29
s 16
f 22/21/30 20/15/30 38/15/30 39/21/30
s 17
f 42/28/23 28/28/31 55/28/32 70/28/23
s 18
f 18/18/30 16/17/30 36/17/30 37/18/30
s 19
f 41/43/22 40/44/22 68/44/22 69/43/22
s 20
f 6/4/33 46/4/34 106/4/35 75/4/35
s 21
f 14/1/30 12/13/30 34/13/30 35/1/30
s 15
f 26/25/27 41/25/36 69/25/36 56/25/28
s 22
f 10/8/30 8/6/30 32/6/30 33/8/30
s 23
f 29/3/37 4/3/38 43/3/39 57/3/37
s 24
f 2/11/30 28/28/30 42/28/30 30/11/30
s 25
f 6/4/30 4/3/30 29/3/30 31/4/30
s 7
f 20/15/13 19/20/14 89/20/14 90/15/14
s 26
f 26/25/30 24/24/30 40/24/30 41/25/30
s 27
f 47/13/30 48/8/30 61/8/30 62/13/30
f 57/45/30 58/46/30 70/47/30 69/48/30 68/49/30 67/50/30 66/51/30 65/52/30 64/53/30 63/54/30 62/55/30 61/56/30 60/57/30 59/58/30
f 45/6/30 46/4/30 59/4/30 60/6/30
f 43/3/30 44/59/30 58/59/30 57/3/30
f 55/28/30 56/25/30 69/25/30 70/28/30
f 53/24/30 54/21/30 67/21/30 68/24/30
f 51/15/30 52/18/30 65/18/30 66/15/30
f 49/17/30 50/1/30 63/1/30 64/17/30
s 14
f 3/60/26 1/61/26 71/61/26 72/60/26
s 28
f 30/62/25 42/63/25 70/63/25 58/62/25
s 29
f 40/24/40 24/24/41 53/24/42 68/24/40
s 30
f 10/8/43 33/8/40 61/8/40 48/8/44
s 31
f 31/64/4 29/65/4 57/65/4 59/64/4
s 9
f 34/13/36 12/13/16 47/13/24 62/13/36
s 7
f 38/15/45 20/15/13 51/15/12 66/15/45
s 32
f 33/66/8 32/67/8 60/67/8 61/66/8
s 30
f 10/8/43 48/8/44 108/8/46 79/8/46
s 33
f 22/21/47 39/21/48 67/21/48 54/21/49
s 20
f 6/4/33 31/4/45 59/4/45 46/4/34
s 14
f 11/68/26 9/69/26 80/69/26 81/68/26
s 34
f 35/70/11 34/71/11 62/71/11 63/70/11
s 3
f 32/6/48 8/6/6 45/6/5 60/6/48
s 17
f 28/28/31 27/27/50 97/27/50 98/28/50
s 11
f 36/17/51 16/17/20 49/17/19 64/17/51
s 35
f 37/72/15 36/73/15 64/73/15 65/72/15
s 36
f 18/18/52 37/18/37 65/18/37 52/18/53
s 5
f 2/11/10 30/11/51 58/11/51 44/11/54
s 37
f 39/74/18 38/75/18 66/75/18 67/74/18
s 38
f 71/76/40 74/59/40 73/3/40 72/2/40
s 39
f 76/5/23 75/4/23 78/6/23 77/7/23
s 40
f 80/9/37 79/8/37 82/13/37 81/12/37
s 41
f 84/14/48 83/1/48 86/17/48 85/16/48
s 42
f 88/19/36 87/18/36 90/15/36 89/20/36
s 43
f 92/22/51 91/21/51 94/24/51 93/23/51
s 44
f 96/26/45 95/25/45 98/28/45 97/27/45
s 40
f 82/13/37 79/8/37 108/8/37 107/13/37
s 42
f 90/15/36 87/18/36 100/18/36 99/15/36
s 44
f 98/28/45 95/25/45 103/25/45 102/28/45
s 38
f 73/3/40 74/59/40 104/59/40 101/3/40
s 43
f 94/24/51 91/21/51 112/21/51 111/24/51
s 41
f 86/17/48 83/1/48 110/1/48 109/17/48
s 39
f 78/6/23 75/4/23 106/4/23 105/6/23
s 27
f 44/59/30 43/3/30 101/3/30 104/59/30
s 23
f 4/3/38 3/2/55 72/2/55 73/3/55
s 33
f 21/22/56 22/21/47 91/21/56 92/22/56
s 5
f 2/11/10 44/11/54 104/11/9 74/11/9
s 36
f 18/18/52 52/18/53 100/18/57 87/18/57
s 27
f 46/4/30 45/6/30 105/6/30 106/4/30
s 14
f 23/77/26 21/78/26 92/78/26 93/77/26
s 1
f 13/14/3 14/1/1 83/1/3 84/14/3
s 27
f 48/8/30 47/13/30 107/13/30 108/8/30
s 14
f 15/79/26 13/80/26 84/80/26 85/79/26
s 29
f 53/24/42 24/24/41 94/24/58 111/24/58
s 27
f 50/1/30 49/17/30 109/17/30 110/1/30
s 20
f 5/5/35 6/4/33 75/4/35 76/5/35
s 29
f 24/24/41 23/23/58 93/23/58 94/24/58
s 27
f 52/18/30 51/15/30 99/15/30 100/18/30
s 14
f 7/81/26 5/82/26 76/82/26 77/81/26
s 11
f 16/17/20 15/16/21 85/16/21 86/17/21
s 27
f 54/21/30 53/24/30 111/24/30 112/21/30
f 56/25/30 55/28/30 102/28/30 103/25/30
s 3
f 8/6/6 7/7/59 77/7/59 78/6/7
s 15
f 25/26/29 26/25/27 95/25/29 96/26/29
s 23
f 43/3/39 4/3/38 73/3/55 101/3/55
s 14
f 27/83/26 25/84/26 96/84/26 97/83/26
s 36
f 17/19/57 18/18/52 87/18/57 88/19/57
s 14
f 19/85/26 17/86/26 88/86/26 89/85/26
s 33
f 22/21/47 54/21/49 112/21/56 91/21/56
s 17
f 55/28/32 28/28/31 98/28/50 102/28/50
s 30
f 9/9/46 10/8/43 79/8/46 80/9/46
o Mine
v 0.055970 -0.024826 -0.055969
v 0.027985 -0.024826 -0.074040
v -0.000000 -0.024826 -0.079152
v -0.027985 -0.024826 -0.074040
v 0.053587 -0.007865 -0.053586
v 0.026794 -0.004937 -0.069493
v -0.000000 -0.004053 -0.074040
v -0.026794 -0.004937 -0.069493
v -0.055970 -0.024826 -0.055969
v -0.074041 -0.024826 -0.027984
v -0.079154 -0.024826 0.000001
v -0.074041 -0.024826 0.027986
v -0.053587 -0.007865 -0.053586
v -0.069495 -0.004937 -0.026793
v -0.074041 -0.004053 0.000001
v -0.069495 -0.004937 0.026795
v -0.055970 -0.024826 0.055971
v -0.027985 -0.024826 0.074042
v -0.000000 -0.024826 0.079155
v 0.027985 -0.024826 0.074042
v -0.053587 -0.007865 0.053588
v -0.026794 -0.004937 0.069496
v -0.000000 -0.004053 0.074042
v 0.026794 -0.004937 0.069496
v 0.055970 -0.024826 0.055971
v 0.074041 -0.024826 0.027986
v 0.079154 -0.024826 0.000001
v 0.074041 -0.024826 -0.027984
v 0.053587 -0.007865 0.053588
v 0.069495 -0.004937 0.026795
v 0.074041 -0.004053 0.000001
v 0.069495 -0.004937 -0.026793
v 0.045699 0.009096 -0.045698
v 0.022850 0.014952 -0.053586
v -0.000000 0.016720 -0.055969
v -0.022850 0.014952 -0.053586
v -0.045699 0.009096 -0.045698
v 0.053587 0.014952 -0.022848
v 0.026794 0.026759 -0.026793
v -0.000000 0.030135 -0.027984
v -0.026794 0.026759 -0.026793
v -0.053587 0.014952 -0.022848
v 0.055970 0.016720 0.000001
v 0.027985 0.030135 0.000001
v -0.000000 0.033929 0.000001
v -0.027985 0.030135 0.000001
v -0.055970 0.016720 0.000001
v 0.053587 0.014952 0.022851
v 0.026794 0.026759 0.026795
v -0.000000 0.030135 0.027986
v -0.026794 0.026759 0.026795
v -0.053587 0.014952 0.022851
v 0.045699 0.009096 0.045700
v 0.022850 0.014952 0.053588
v -0.000000 0.016720 0.055971
v -0.022850 0.014952 0.053588
v -0.045699 0.009096 0.045700
vn 0.6912 0.2111 -0.6912
vn 0.3518 0.2235 -0.9090
vn 0.3253 0.4382 -0.8380
vn 0.6498 0.3944 -0.6498
vn -0.0000 0.2360 -0.9718
vn -0.0000 0.4623 -0.8867
vn -0.3518 0.2235 -0.9090
vn -0.3253 0.4382 -0.8380
vn -0.6912 0.2111 -0.6912
vn -0.6498 0.3944 -0.6498
vn 0.2594 0.7755 -0.5756
vn 0.5120 0.6897 -0.5120
vn -0.0000 0.8030 -0.5960
vn -0.2594 0.7755 -0.5756
vn -0.5120 0.6897 -0.5120
vn -0.9090 0.2235 -0.3518
vn -0.8379 0.4382 -0.3253
vn -0.9718 0.2360 -0.0000
vn -0.8867 0.4623 -0.0000
vn -0.9090 0.2235 0.3517
vn -0.8379 0.4382 0.3253
vn -0.6912 0.2111 0.6912
vn -0.6498 0.3944 0.6498
vn -0.5756 0.7755 -0.2594
vn -0.5960 0.8030 -0.0000
vn -0.5756 0.7755 0.2594
vn -0.5120 0.6897 0.5120
vn -0.0000 1.0000 -0.0000
vn -0.3518 0.2235 0.9090
vn -0.3253 0.4382 0.8379
vn -0.0000 0.2360 0.9718
vn -0.0000 0.4623 0.8867
vn 0.3518 0.2235 0.9090
vn 0.3253 0.4382 0.8379
vn 0.6912 0.2111 0.6912
vn 0.6498 0.3944 0.6498
vn -0.2594 0.7755 0.5756
vn -0.0000 0.8030 0.5960
vn 0.2594 0.7755 0.5756
vn 0.5120 0.6897 0.5120
vn 0.9090 0.2235 0.3519
vn 0.8379 0.4382 0.3253
vn 0.9090 0.2235 0.3517
vn 0.9718 0.2360 -0.0000
vn 0.8867 0.4623 -0.0000
vn 0.9090 0.2235 -0.3518
vn 0.8379 0.4382 -0.3253
vn 0.5756 0.7755 0.2594
vn 0.5960 0.8030 -0.0000
vn 0.5756 0.7755 -0.2594
vn -0.0000 -1.0000 -0.0000
vn 0.2668 0.9261 -0.2668
vn -0.0000 0.9611 -0.2761
vn -0.2668 0.9261 -0.2668
vn 0.2761 0.9611 -0.0000
vn -0.2761 0.9611 -0.0000
vn 0.2668 0.9261 0.2668
vn -0.0000 0.9611 0.2761
vn -0.2668 0.9261 0.2668
vt 0.329404 0.923683
vt 0.321022 0.929096
vt 0.320665 0.927734
vt 0.328691 0.922970
vt 0.312640 0.930627
vt 0.312640 0.929096
vt 0.304258 0.929096
vt 0.304615 0.927734
vt 0.295876 0.923683
vt 0.296590 0.922970
vt 0.319484 0.922970
vt 0.326328 0.920607
vt 0.312640 0.923683
vt 0.305796 0.922970
vt 0.298952 0.920607
vt 0.290463 0.915302
vt 0.291825 0.914945
vt 0.288932 0.906919
vt 0.290463 0.906919
vt 0.290463 0.898537
vt 0.291825 0.898894
vt 0.295876 0.890155
vt 0.296590 0.890869
vt 0.296590 0.913763
vt 0.295876 0.906919
vt 0.296590 0.900075
vt 0.298952 0.893231
vt 0.336348 0.906919
vt 0.334817 0.915302
vt 0.312640 0.883211
vt 0.321022 0.884742
vt 0.329404 0.890155
vt 0.304258 0.884742
vt 0.304615 0.886104
vt 0.312640 0.884742
vt 0.320665 0.886104
vt 0.328691 0.890869
vt 0.305796 0.890869
vt 0.312640 0.890155
vt 0.319484 0.890869
vt 0.326328 0.893231
vt 0.334817 0.898537
vt 0.333455 0.898894
vt 0.334817 0.906919
vt 0.333455 0.914945
vt 0.328691 0.900075
vt 0.329404 0.906919
vt 0.328691 0.913763
vt 0.320665 0.914945
vt 0.312640 0.915302
vt 0.304615 0.914945
vt 0.321022 0.906919
vt 0.312640 0.906919
vt 0.304258 0.906919
vt 0.320665 0.898894
vt 0.312640 0.898537
vt 0.304615 0.898894
s 1
usemtl M_MineColor
f 113/87/60 114/88/61 118/89/62 117/90/63
f 114/88/61 115/91/64 119/92/65 118/89/62
f 115/91/64 116/93/66 120/94/67 119/92/65
f 116/93/66 121/95/68 125/96/69 120/94/67
f 117/90/63 118/89/62 146/97/70 145/98/71
f 118/89/62 119/92/65 147/99/72 146/97/70
f 119/92/65 120/94/67 148/100/73 147/99/72
f 120/94/67 125/96/69 149/101/74 148/100/73
f 121/95/68 122/102/75 126/103/76 125/96/69
f 122/102/75 123/104/77 127/105/78 126/103/76
f 123/104/77 124/106/79 128/107/80 127/105/78
f 124/106/79 129/108/81 133/109/82 128/107/80
f 125/96/69 126/103/76 154/110/83 149/101/74
f 126/103/76 127/105/78 159/111/84 154/110/83
f 127/105/78 128/107/80 164/112/85 159/111/84
f 128/107/80 133/109/82 169/113/86 164/112/85
f 139/114/87 140/115/87 121/95/87
f 131/116/87 132/117/87 137/118/87
f 130/119/87 131/116/87 129/108/87
f 129/108/87 131/116/87 137/118/87
f 129/108/81 130/119/88 134/120/89 133/109/82
f 130/119/88 131/116/90 135/121/91 134/120/89
f 131/116/90 132/117/92 136/122/93 135/121/91
f 132/117/92 137/118/94 141/123/95 136/122/93
f 133/109/82 134/120/89 168/124/96 169/113/86
f 134/120/89 135/121/91 167/125/97 168/124/96
f 135/121/91 136/122/93 166/126/98 167/125/97
f 136/122/93 141/123/95 165/127/99 166/126/98
f 137/118/87 124/106/87 129/108/87
f 113/87/87 114/88/87 115/91/87
f 137/118/87 138/128/87 123/104/87
f 122/102/87 139/114/87 121/95/87
f 140/115/87 113/87/87 121/95/87
f 137/118/94 138/128/100 142/129/101 141/123/95
f 138/128/102 139/114/103 143/130/104 142/129/101
f 139/114/103 140/115/105 144/131/106 143/130/104
f 140/115/105 113/87/60 117/90/63 144/131/106
f 141/123/95 142/129/101 160/132/107 165/127/99
f 142/129/101 143/130/104 155/133/108 160/132/107
f 143/130/104 144/131/106 150/134/109 155/133/108
f 144/131/106 117/90/63 145/98/71 150/134/109
f 124/106/87 137/118/87 123/104/87
f 113/87/87 115/91/87 121/95/87
f 115/91/87 116/93/87 121/95/87
f 139/114/87 122/102/87 123/104/87
f 138/128/110 123/104/110 139/114/110
f 145/98/71 146/97/70 151/135/111 150/134/109
f 146/97/70 147/99/72 152/136/112 151/135/111
f 147/99/72 148/100/73 153/137/113 152/136/112
f 148/100/73 149/101/74 154/110/83 153/137/113
f 150/134/109 151/135/111 156/138/114 155/133/108
f 151/135/111 152/136/112 157/139/87 156/138/114
f 152/136/112 153/137/113 158/140/115 157/139/87
f 153/137/113 154/110/83 159/111/84 158/140/115
f 155/133/108 156/138/114 161/141/116 160/132/107
f 156/138/114 157/139/87 162/142/117 161/141/116
f 157/139/87 158/140/115 163/143/118 162/142/117
f 158/140/115 159/111/84 164/112/85 163/143/118
f 160/132/107 161/141/116 166/126/98 165/127/99
f 161/141/116 162/142/117 167/125/97 166/126/98
f 162/142/117 163/143/118 168/124/96 167/125/97
f 163/143/118 164/112/85 169/113/86 168/124/96
