# Blender 4.3.2
# www.blender.org
mtllib SpikeMesh_CarOrigin.mtl
o Roundcube.001
v 0.052163 0.217360 2.188241
v -0.101142 0.178174 2.280073
v 0.053528 0.391716 2.132841
v -0.162128 0.391716 2.216007
v -0.200412 0.217360 2.428670
v -0.108580 0.178174 2.581975
v -0.255812 0.391716 2.427305
v -0.172647 0.391716 2.642961
v 0.040017 0.217360 2.681245
v 0.193322 0.178174 2.589414
v 0.038652 0.391716 2.736646
v 0.254308 0.391716 2.653481
v 0.292592 0.217360 2.440817
v 0.200760 0.178174 2.287511
v 0.347992 0.391716 2.442182
v 0.264827 0.391716 2.226526
v 0.046090 0.089722 2.434743
v 0.052163 0.566072 2.188241
v -0.101142 0.605258 2.280073
v -0.200412 0.566072 2.428670
v 0.200760 0.605258 2.287511
v 0.046090 0.693710 2.434743
v -0.108580 0.605258 2.581975
v 0.292592 0.566072 2.440817
v 0.193322 0.605258 2.589414
v 0.040017 0.566072 2.681245
vn -0.3769 -0.3251 -0.8674
vn -0.8477 -0.3251 -0.4191
vn -0.3769 0.3251 -0.8674
vn -0.8477 0.3251 -0.4191
vn -0.8674 -0.3251 0.3769
vn -0.4191 -0.3251 0.8477
vn -0.8674 0.3251 0.3769
vn -0.4191 0.3251 0.8477
vn 0.3769 -0.3251 0.8674
vn 0.8477 -0.3251 0.4191
vn 0.3769 0.3251 0.8674
vn 0.8477 0.3251 0.4191
vn 0.8674 -0.3251 -0.3769
vn 0.4191 -0.3251 -0.8477
vn 0.8674 0.3251 -0.3769
vn 0.4191 0.3251 -0.8477
vn 0.4596 -0.8881 0.0113
vn -0.0113 -0.8881 0.4596
vn 0.0113 -0.8881 -0.4596
vn -0.4596 -0.8881 -0.0113
vn 0.0113 0.8881 -0.4596
vn -0.4596 0.8881 -0.0113
vn 0.4596 0.8881 0.0113
vn -0.0113 0.8881 0.4596
vt 0.982210 0.900533
vt 0.941624 0.891412
vt 0.941624 0.941120
vt 0.991332 0.941120
vt 0.901038 0.900533
vt 0.891916 0.941120
vt 0.941624 0.990828
vt 0.982210 0.981706
vt 0.901038 0.981706
s 1
usemtl M_Rocket
f 1/1/1 2/2/1 4/3/1 3/4/1
f 2/2/2 5/5/2 7/6/2 4/3/2
f 3/4/3 4/3/3 19/7/3 18/8/3
f 4/3/4 7/6/4 20/9/4 19/7/4
f 5/1/5 6/2/5 8/3/5 7/4/5
f 6/2/6 9/5/6 11/6/6 8/3/6
f 7/4/7 8/3/7 23/7/7 20/8/7
f 8/3/8 11/6/8 26/9/8 23/7/8
f 9/5/9 10/2/9 12/3/9 11/6/9
f 10/2/10 13/1/10 15/4/10 12/3/10
f 11/6/11 12/3/11 25/7/11 26/9/11
f 12/3/12 15/4/12 24/8/12 25/7/12
f 13/5/13 14/2/13 16/3/13 15/6/13
f 14/2/14 1/1/14 3/4/14 16/3/14
f 15/6/15 16/3/15 21/7/15 24/9/15
f 16/3/16 3/4/16 18/8/16 21/7/16
f 13/1/17 10/2/17 17/3/17 14/4/17
f 10/2/18 9/5/18 6/6/18 17/3/18
f 14/4/19 17/3/19 2/7/19 1/8/19
f 17/3/20 6/6/20 5/9/20 2/7/20
f 18/8/21 19/7/21 22/3/21 21/4/21
f 19/7/22 20/9/22 23/6/22 22/3/22
f 21/4/23 22/3/23 25/2/23 24/1/23
f 22/3/24 23/6/24 26/5/24 25/2/24
o Cone
v -0.040007 0.612263 2.344297
v 0.136537 0.612263 2.348646
v 0.132187 0.612263 2.525190
v -0.044356 0.612263 2.520840
v 0.046090 0.862009 2.434743
vn 0.0232 0.3333 -0.9425
vn 0.9425 0.3333 0.0232
vn -0.0000 -1.0000 -0.0000
vn -0.0232 0.3333 0.9425
vn -0.9425 0.3333 -0.0232
vt 0.289962 0.936266
vt 0.289962 0.910980
vt 0.315248 0.910980
vt 0.289962 0.885694
vt 0.342642 0.936266
vt 0.367928 0.910980
vt 0.342642 0.885694
vt 0.317355 0.910980
vt 0.264676 0.910980
s 1
usemtl M_Rocket
f 27/10/25 31/11/25 28/12/25
f 28/12/26 31/11/26 29/13/26
f 27/14/27 28/15/27 29/16/27 30/17/27
f 29/13/28 31/11/28 30/18/28
f 30/18/29 31/11/29 27/10/29
o Cone.001
v 0.132187 0.171169 2.525190
v 0.136537 0.171169 2.348646
v -0.040007 0.171169 2.344296
v -0.044357 0.171169 2.520840
v 0.046090 -0.078577 2.434743
vn 0.9425 -0.3333 0.0232
vn 0.0232 -0.3333 -0.9425
vn -0.0000 1.0000 -0.0000
vn -0.9425 -0.3333 -0.0232
vn -0.0232 -0.3333 0.9425
vt 0.289962 0.936266
vt 0.289962 0.910980
vt 0.315248 0.910980
vt 0.289962 0.885694
vt 0.342642 0.936266
vt 0.367928 0.910980
vt 0.342642 0.885694
vt 0.317355 0.910980
vt 0.264676 0.910980
s 1
usemtl M_Rocket
f 32/19/30 36/20/30 33/21/30
f 33/21/31 36/20/31 34/22/31
f 32/23/32 33/24/32 34/25/32 35/26/32
f 34/22/33 36/20/33 35/27/33
f 35/27/34 36/20/34 32/19/34
o Cone.002
v 0.198152 0.516589 2.594487
v 0.288599 0.391716 2.508390
v 0.198152 0.266843 2.594487
v 0.107705 0.391716 2.680584
v 0.370346 0.391716 2.775381
vn 0.7127 0.6667 -0.2182
vn 0.7127 -0.6667 -0.2182
vn -0.6895 -0.0000 -0.7243
vn -0.2530 -0.6667 0.7011
vn -0.2530 0.6667 0.7011
vt 0.289962 0.936266
vt 0.289962 0.910980
vt 0.315248 0.910980
vt 0.289962 0.885694
vt 0.342642 0.936266
vt 0.367928 0.910980
vt 0.342642 0.885694
vt 0.317355 0.910980
vt 0.264676 0.910980
s 1
usemtl M_Rocket
f 37/28/35 41/29/35 38/30/35
f 38/30/36 41/29/36 39/31/36
f 37/32/37 38/33/37 39/34/37 40/35/37
f 39/31/38 41/29/38 40/36/38
f 40/36/39 41/29/39 37/28/39
o Cone.003
v -0.105972 0.266843 2.274999
v -0.015525 0.391716 2.188902
v -0.105972 0.516589 2.274999
v -0.196418 0.391716 2.361096
v -0.278166 0.391716 2.094106
vn 0.2530 -0.6667 -0.7011
vn 0.2530 0.6667 -0.7011
vn 0.6895 -0.0000 0.7243
vn -0.7127 0.6667 0.2182
vn -0.7127 -0.6667 0.2182
vt 0.289962 0.936266
vt 0.289962 0.910980
vt 0.315248 0.910980
vt 0.289962 0.885694
vt 0.342642 0.936266
vt 0.367928 0.910980
vt 0.342642 0.885694
vt 0.317355 0.910980
vt 0.264676 0.910980
s 1
usemtl M_Rocket
f 42/37/40 46/38/40 43/39/40
f 43/39/41 46/38/41 44/40/41
f 42/41/42 43/42/42 44/43/42 45/44/42
f 44/40/43 46/38/43 45/45/43
f 45/45/44 46/38/44 42/37/44
o Cone.004
v 0.205835 0.516589 2.282681
v 0.119738 0.391716 2.192235
v 0.205835 0.266843 2.282681
v 0.291932 0.391716 2.373128
v 0.386728 0.391716 2.110487
vn -0.2182 0.6667 -0.7127
vn -0.2182 -0.6667 -0.7127
vn -0.7243 -0.0000 0.6895
vn 0.7011 -0.6667 0.2530
vn 0.7011 0.6667 0.2530
vt 0.289962 0.936266
vt 0.289962 0.910980
vt 0.315248 0.910980
vt 0.289962 0.885694
vt 0.342642 0.936266
vt 0.367928 0.910980
vt 0.342642 0.885694
vt 0.317355 0.910980
vt 0.264676 0.910980
s 1
usemtl M_Rocket
f 47/46/45 51/47/45 48/48/45
f 48/48/46 51/47/46 49/49/46
f 47/50/47 48/51/47 49/52/47 50/53/47
f 49/49/48 51/47/48 50/54/48
f 50/54/49 51/47/49 47/46/49
o Cone.005
v -0.113653 0.266843 2.586805
v -0.199750 0.391716 2.496358
v -0.113653 0.516589 2.586805
v -0.027556 0.391716 2.677252
v -0.294546 0.391716 2.758999
vn -0.7011 -0.6667 -0.2530
vn -0.7011 0.6667 -0.2530
vn 0.7243 -0.0000 -0.6895
vn 0.2182 0.6667 0.7127
vn 0.2182 -0.6667 0.7127
vt 0.289962 0.936266
vt 0.289962 0.910980
vt 0.315248 0.910980
vt 0.289962 0.885694
vt 0.342642 0.936266
vt 0.367928 0.910980
vt 0.342642 0.885694
vt 0.317355 0.910980
vt 0.264676 0.910980
s 1
usemtl M_Rocket
f 52/55/50 56/56/50 53/57/50
f 53/57/51 56/56/51 54/58/51
f 52/59/52 53/60/52 54/61/52 55/62/52
f 54/58/53 56/56/53 55/63/53
f 55/63/54 56/56/54 52/55/54
